<svg width="48" height="48" viewBox="0 0 48 48" fill="none" xmlns="http://www.w3.org/2000/svg">
<path d="M25.0005 20C25.0005 16.7 22.3005 14 19.0005 14C15.7005 14 13.0005 16.7 13.0005 20C13.0005 23.3 15.7005 26 19.0005 26C22.3005 26 25.0005 23.3 25.0005 20ZM19.0005 22C17.9005 22 17.0005 21.1 17.0005 20C17.0005 18.9 17.9005 18 19.0005 18C20.1005 18 21.0005 18.9 21.0005 20C21.0005 21.1 20.1005 22 19.0005 22ZM32.0005 26C34.2205 26 36.0005 24.22 36.0005 22C36.0005 19.78 34.2205 18 32.0005 18C29.7805 18 27.9805 19.78 28.0005 22C28.0005 24.22 29.7805 26 32.0005 26ZM23.9805 4.01999C12.9405 4.01999 3.98047 12.98 3.98047 24.02C3.98047 35.06 12.9405 44.02 23.9805 44.02C35.0205 44.02 43.9805 35.06 43.9805 24.02C43.9805 12.98 35.0205 4.01999 23.9805 4.01999ZM11.6805 34.24C13.0405 33.16 16.2205 32.02 19.0005 32.02C19.1405 32.02 19.3005 32.04 19.4605 32.04C19.9405 30.76 20.8005 29.46 22.0605 28.32C20.9405 28.12 19.8805 28 19.0005 28C16.4005 28 12.2205 28.9 9.54047 30.86C8.54047 28.78 7.98047 26.46 7.98047 24C7.98047 15.18 15.1605 7.99999 23.9805 7.99999C32.8005 7.99999 39.9805 15.18 39.9805 24C39.9805 26.4 39.4405 28.68 38.4805 30.74C36.4805 29.56 33.7605 29 32.0005 29C28.9605 29 23.0005 30.62 23.0005 34.4V39.96C18.4605 39.7 14.4205 37.54 11.6805 34.24Z" fill="#656565"/>
</svg>
